<svg width="32" height="32" viewBox="0 0 32 32" fill="none" xmlns="http://www.w3.org/2000/svg">
<path d="M22.2536 10.7073C22.1095 10.17 21.8822 9.69847 21.5717 9.29289C21.2613 8.87718 20.8732 8.52737 20.4075 8.24346C19.9529 7.94942 19.4207 7.73142 18.8108 7.58947C18.2121 7.43738 17.5523 7.36133 16.8316 7.36133C15.2793 7.36133 13.9543 7.701 12.8565 8.38035C11.7699 9.05969 10.9383 10.0381 10.3617 11.3157C9.79626 12.5933 9.51351 14.1345 9.51351 15.9393C9.51351 17.7644 9.78517 19.3258 10.3285 20.6237C10.8718 21.9215 11.6812 22.9152 12.7568 23.6047C13.8323 24.2942 15.1684 24.6389 16.7651 24.6389C18.1733 24.6389 19.343 24.4513 20.2744 24.0762C21.2169 23.701 21.921 23.1687 22.3867 22.4792C22.8524 21.7897 23.0852 20.9786 23.0852 20.0457L16.8981 20.1978V14.175H32V18.4944C32 21.3335 31.3403 23.7618 30.0208 25.7796C28.7124 27.7872 26.9051 29.3284 24.5988 30.4032C22.3035 31.4678 19.6701 32.0001 16.6985 32.0001C13.3832 32.0001 10.4726 31.3563 7.96674 30.0686C5.46085 28.7809 3.50381 26.9456 2.09563 24.5629C0.698545 22.1801 0 19.3461 0 16.061C0 13.4855 0.426888 11.2042 1.28067 9.21685C2.14553 7.22952 3.34304 5.55145 4.87318 4.18263C6.40333 2.80367 8.17186 1.76438 10.1788 1.06476C12.1857 0.354997 14.3368 0.000117429 16.632 0.000117429C18.65 0.000117429 20.5239 0.263743 22.2536 0.790993C23.9945 1.3081 25.5301 2.04828 26.8607 3.01152C28.2024 3.96463 29.2834 5.09517 30.104 6.40316C30.9245 7.71114 31.4234 9.14587 31.6008 10.7073H22.2536Z" fill="#3769FC"/>
</svg>
