<svg width="48" height="48" viewBox="0 0 48 48" fill="none" xmlns="http://www.w3.org/2000/svg">
<rect width="48" height="48" fill="#81EAC2"/>
<path d="M30.2536 18.7073C30.1095 18.17 29.8822 17.6985 29.5717 17.2929C29.2613 16.8772 28.8732 16.5274 28.4075 16.2435C27.9529 15.9494 27.4207 15.7314 26.8108 15.5895C26.2121 15.4374 25.5523 15.3613 24.8316 15.3613C23.2793 15.3613 21.9543 15.701 20.8565 16.3803C19.7699 17.0597 18.9383 18.0381 18.3617 19.3157C17.7963 20.5933 17.5135 22.1345 17.5135 23.9393C17.5135 25.7644 17.7852 27.3258 18.3285 28.6237C18.8718 29.9215 19.6812 30.9152 20.7568 31.6047C21.8323 32.2942 23.1684 32.6389 24.7651 32.6389C26.1733 32.6389 27.343 32.4513 28.2744 32.0762C29.2169 31.701 29.921 31.1687 30.3867 30.4792C30.8524 29.7897 31.0852 28.9786 31.0852 28.0457L24.8981 28.1978V22.175H40V26.4944C40 29.3335 39.3403 31.7618 38.0208 33.7796C36.7124 35.7872 34.9051 37.3284 32.5988 38.4032C30.3035 39.4678 27.6701 40.0001 24.6985 40.0001C21.3832 40.0001 18.4726 39.3563 15.9667 38.0686C13.4608 36.7809 11.5038 34.9456 10.0956 32.5629C8.69854 30.1801 8 27.3461 8 24.061C8 21.4855 8.42689 19.2042 9.28067 17.2168C10.1455 15.2295 11.343 13.5514 12.8732 12.1826C14.4033 10.8037 16.1719 9.76438 18.1788 9.06476C20.1857 8.355 22.3368 8.00012 24.632 8.00012C26.65 8.00012 28.5239 8.26374 30.2536 8.79099C31.9945 9.3081 33.5301 10.0483 34.8607 11.0115C36.2024 11.9646 37.2834 13.0952 38.104 14.4032C38.9245 15.7111 39.4234 17.1459 39.6008 18.7073H30.2536Z" fill="#3769FC"/>
</svg>
